<?xml version="1.0" encoding="utf-8"?>
<!-- Generator: Adobe Illustrator 19.1.1, SVG Export Plug-In . SVG Version: 6.00 Build 0)  -->
<svg version="1.1" id="Layer_1" xmlns="http://www.w3.org/2000/svg" xmlns:xlink="http://www.w3.org/1999/xlink" x="0px" y="0px"
	 viewBox="398 206 395 381" style="enable-background:new 398 206 395 381;" xml:space="preserve">
<style type="text/css">
	.st0{fill:none;stroke:#E0DDD8;stroke-width:2;stroke-linecap:round;stroke-linejoin:round;stroke-miterlimit:10;}
	.st1{fill:none;stroke:#E0DDD8;stroke-width:2;stroke-miterlimit:10;}
</style>
<g>
	<g>
		<path class="st0" d="M743.3,367.3c-0.9-0.9-4.4-6.8-5.6-2.3c-1.5,0.1-2.6-0.6-4.1-0.2c-2,0.6-1.3,1.9-2.1,3.3
			c-0.8,1.5-1.5,1.6-1.5,3.7c0,0.7,0.5,1.3,0.2,1.8c-0.4,0.7-1.8,0.6-2.3,1.4c-1.4,2.5,1.7,2.4,1.9,3.9c0.1,0.5-1.3,1.4-1.4,2.1
			c-0.2,0.8,0.1,1.5,0.6,2.1c0.5,0.5,1.5,0.4,1.9,1c0.4,0.6,0,1.7,0.4,2.5c0.8,1.5,2.4,1.6,4.1,1.6c0.1,1.6,0.5,2.7,2.1,2.9
			c1.4,0.1,2.3-1.3,3.5-1.2c1.4,0.1,1.2,1.7,2.9,1.4c1.2-0.3,1-1.5,2.1-1.9c1.7-0.6,1.9,2.1,3.7,1.6c1.8-0.5,0.1-2.7,1.3-3.5
			c0.9-0.6,2.1,1.9,3.5,0.8c0.8-0.6,0.3-2.6,0.6-3.5c0.7,0.2,2,0.4,2.7-0.2c0.8-0.7,0-1.8,0.4-2.8c0.5-1.1,1.4-0.9,1.5-2.4
			c0-0.9-0.6-1.7-0.7-2.5c1.8-1.1,0.6-3.6-1-4.1c0.2-2.1-1.1-3.2-3.1-3.3c0-2.1-0.8-2.8-2.9-2.7c-0.2-2.9-3.1-1.9-4-0.2
			c0-1.6-2.7-1.5-3.7-0.9c-1.4,0.7-1.1,1.4-0.9,2.8"/>
		<path class="st0" d="M711.4,381.5c-0.6-0.2-1.7-0.2-2.3,0.2c-0.9,0.8-0.2,1.5-0.8,2.3c-0.5,0.6-1.5,0.3-1.9,1
			c-0.7,1,0.1,1.4,0.3,2c0.3,0.9,0.5,0.5,0.4,1.6c-0.1,0.7-0.8,1.3-0.8,2.3c0,2.4,1.1,2.1,3.1,2.5c-0.4,2.3,0.6,3.9,3.3,3.8
			c1.1,0,1.5-0.7,2.5,0c1,0.7,0.3,1.6,1.9,1.7c1.7,0.2,1.4-1.1,2.3-1.6c1.1-0.5,1.9,0.4,3.1,0.4c3.5-0.1,2.3-2.7,3.1-4.8
			c2.1,0.1,3.7-0.9,3.3-3.1c-0.2-1.2-1-1.3-0.4-2.4c0.6-1.1,1.4-0.4,1.5-1.9c0.2-2.7-2.5-1.3-3.5-2.7c-0.4-0.5,0.3-1.5-0.3-2.2
			c-0.5-0.6-1.8-0.6-2.5-0.6c0.4-3.1-2.5-2-4.4-2.1c0.2-1.7-0.8-2.9-2.6-2.4c-2.2,0.5-1.5,1.9-1.5,3.6c-2.3,0-3.5-0.6-3.4,2.3"/>
		<path class="st0" d="M710.4,402.1c-1.2,0.2-2.9,1.8-0.8,2.1c0.2,1.5-3.3,1.9,0.1,3.4c-2.2,2,0.8,2.3,2.3,2.4
			c-0.1,1.2,0.1,2.1,1.4,2.1c1-0.1,1-1.2,1.9-1.5c0.7-0.2,1.3,1.2,2.3,0.2c0.8-0.8,0-1.7-0.2-2.7c2.4,0.4,3.4-2.9,0.6-3.3
			c1.9-1.6,0.5-2.3-1.3-2.3c0.2-1.4-0.9-2.1-2.1-1.5c0.3,2.8-1.1,0.5-1.7,0.2c-0.8-0.5-2.7-0.4-1.8,1"/>
		<path class="st0" d="M766.4,405.8c-0.9-1.3-2.2-2.1-3.7-1c-0.5,0.4-0.5,1.2-1.1,1.6c-0.8,0.6-1.1-0.3-1.8,0.8
			c-0.4,0.8,0.5,1.6,0.1,2.3c-0.3,0.6-1.4,0.5-1.9,1c-1.8,1.4-1.1,2.6,0.6,3.7c-1,0.9-0.6,2.7,0.5,3.3c1.2,0.8,2.1-0.3,3.7,0
			c-0.3,1.5,0.9,2.2,2.3,2.1c1.9-0.2,0.8-1.2,2-1.7c1.4-0.7,1.6,0.9,2.9,0.4c1-0.4,0.8-2,0.8-2.9c3.6-0.1,2-1.5,3.4-3.5
			c0.5-0.8,1.5-0.5,1.7-1.7c0.3-2-0.9-1-1.6-1.9c-0.5-0.7-0.2-2.1-1.1-2.8c-1.5-1-1.4,0.3-2.3,0.6c-1.4,0.4-0.9-0.4-2-0.6
			c-1.1-0.2-2.3,0-2.3,1.5"/>
		<path class="st0" d="M769.5,400.4c0.6,1,2.6,1.6,2.3-0.2c0.5,0,2,0.2,2.5-0.1c1-0.7-0.1-1.2,0.4-2c0.9-1.4,3.1-0.8,2.7-3.1
			c-0.1-0.8-1.2-1.2-1.3-1.7c-0.1-0.9,0.9-1.3,1.1-2.1c0.3-1.9-1.4-2.1-2.8-2.5c-0.1-1.5,0.2-2.4-1.2-3.2c-0.6-0.3-1.4-0.1-2-0.5
			c-0.5-0.4-0.4-1.2-1.1-1.6c-0.7-0.4-1.1,0.1-1.8,0c-1-0.2-0.7-0.1-1.6-0.5c-1.1-0.5-2.3-1.8-3.8-0.8c-0.6,0.4-0.5,1.6-0.8,1.9
			c-0.6,0.6-0.9,0.2-1.5,0.6c-1.9,0.9-1.3,0.7-1.7,2.5c-0.1,0.3,0.3,0.8,0.1,1.2c-0.2,0.3-0.8,0.2-0.9,0.5c-0.4,0.7-0.8,0.3-0.8,1.2
			c0,1,1,2.2,1.9,2.7c-3.7,1.7-0.1,2.3,1.4,3.5c-0.2,0.4-1,1.4-0.9,1.9c0.3,1.3,0.9,0.3,1.7,0.8c0.3,0.2,0.8-0.2,1.2,0.1
			c0.3,0.3,0,0.8,0.2,1c0.7,0.8-0.4,1.1,1.2,1.2c0.6,0,0.9-1.1,1.7-1c0.7,0.1,0.8,1.2,1.4,1.6c1.4,0.8,3.9-0.6,2.1-2.1"/>
		<path class="st0" d="M741.8,389.8c1,6.9-0.6,13.7-1.9,20.4c-0.7,3.4-0.9,7.3-2.1,10.6c-1,2.8-3.4,6.1,1.1,6.9
			c1.9,0.4,3.7,0.3,5.6,0.8c2,0.5,3.6,1.2,5.4,0c2.6-1.7,2.8-5.8,3.1-8.7c0.4-3.6,0-7.4-0.2-11c-0.2-2.9-0.8-5.9-1.4-8.8
			c-0.6-3-0.5-6.8-1.7-9.6"/>
		<path class="st0" d="M720.6,396.9c2,2.6,6,5.4,8.7,7.8c3.7,3.3,7.1,6.9,9.8,11.1"/>
		<path class="st0" d="M728.1,393.3c2.2,0.7,4.4,2.7,6.4,4c2.7,1.8,4.4,4.8,7.1,6.5"/>
		<path class="st0" d="M718.7,404.6c3.1-1.2,8-0.4,11.4-0.4"/>
		<path class="st0" d="M717.2,402.3c1.4-1.3,5.5-1.2,7.7-1.2"/>
		<path class="st0" d="M752,404.2c1.6,0.7,9.5-3.1,11-4.8"/>
		<path class="st0" d="M750.3,397.1c0.3-0.4,2-0.8,2.8-1.2c1.8-0.7,3-1.6,4.5-2.9"/>
		<path class="st0" d="M756.2,404c0.7,1.4,2.5,3.6,4,4.2"/>
		<path class="st0" d="M761.8,405.6c-1.2-1-2-2.5-3.1-3.5"/>
		<path class="st0" d="M746.6,380c-0.8,0-1.5,0-2.3,0"/>
		<path class="st0" d="M737.3,373.1c0.8-0.1,1.6,0.1,2.3,0.6"/>
		<path class="st0" d="M745.4,374.9c1,0,1.9,0,2.9,0"/>
		<path class="st0" d="M753.5,377.2c0.6,0,1.2,0,1.7,0"/>
		<path class="st0" d="M746,370.2c0.4,0,0.8,0,1.2,0"/>
		<path class="st0" d="M732.7,380c1.3,0,2.7,0,4,0"/>
		<path class="st0" d="M738.5,387c0.8,0,1.5,0,2.3,0"/>
		<path class="st0" d="M741.4,383.5c-0.6,0-1.2,0-1.7,0"/>
		<path class="st0" d="M736.2,374.9c0.8,0,1.5,0,2.3,0"/>
		<path class="st0" d="M747.7,387.6c-0.8,0-1.5,0-2.3,0"/>
		<path class="st0" d="M768,389.9c0.8,0,1.5,0,2.3,0"/>
		<path class="st0" d="M768.8,387.3c0.3,0.1,0.6,0.1,0.9,0.1"/>
		<path class="st0" d="M763.5,387.6c0.3,0.2,0.6,0.3,0.9,0.1"/>
		<path class="st0" d="M764.6,391.9c0.4,0.3,1,0.4,1.3,0.1"/>
		<path class="st0" d="M765.4,385.4c0.5,0,0.9,0.1,1.3,0.1"/>
		<path class="st0" d="M760.7,389.9c0.1,0,0.2,0,0.3-0.1"/>
		<path class="st0" d="M766.8,388.6c0.3-0.1,0.7-0.2,1-0.3"/>
		<path class="st0" d="M762.3,390.4c0.1,0,0.3,0,0.4,0"/>
		<path class="st0" d="M772,392.8c0.5,0,1,0,1.4,0"/>
		<path class="st0" d="M773,389.7c0.2,0,0.4-0.1,0.4-0.3"/>
		<path class="st0" d="M769,394.1c0.4,0.1,0.9,0,1.3-0.1"/>
		<path class="st0" d="M771,398c0.4,0.1,0.9,0,1.2-0.1"/>
		<path class="st0" d="M773.2,395.9c0.5,0.1,0.9,0.1,1.2-0.3"/>
		<path class="st0" d="M765.8,395.9c0.2,0,0.4,0,0.6,0"/>
		<path class="st0" d="M767.1,398.7c0.4,0,0.7,0,1-0.1"/>
		<path class="st0" d="M761.5,393.6c0.3,0.2,0.7,0.2,1,0.1"/>
		<path class="st0" d="M763,398.1c0.3,0.1,0.6,0,0.6-0.3"/>
		<path class="st0" d="M763.9,394.1c0.3,0,0.7,0,1,0"/>
		<path class="st0" d="M769.3,396.4c0.2,0,0.5,0,0.7,0"/>
		<path class="st0" d="M761.8,394.8c0.2,0,0.4,0,0.6,0"/>
		<path class="st0" d="M768.2,391.9c0.3,0.2,0.6,0.2,0.9,0.1"/>
		<path class="st0" d="M764.2,389.3c0.2,0,0.5,0,0.7,0"/>
		<path class="st0" d="M761.3,385.8c0.1,0,0.3,0,0.4,0"/>
		<path class="st0" d="M760.4,387.8c0.2,0,0.4,0,0.6,0"/>
		<path class="st0" d="M770.7,386.7c0.3,0,0.6,0,0.9,0"/>
		<path class="st0" d="M768.1,384.4c0.1,0.2,0.3,0.3,0.6,0.3"/>
		<path class="st0" d="M774,391.5c0.5,0.4,1,0.5,1.6,0.4"/>
		<path class="st0" d="M754.8,381.1c0.3,0,0.5-0.1,0.6-0.3"/>
		<path class="st0" d="M750.6,384.1c0.6,0.1,1.3,0.1,1.9-0.3"/>
		<path class="st0" d="M749.8,379c0.4,0.1,0.9,0,1.3-0.1"/>
		<path class="st0" d="M752.4,371.8c0.5,0,1-0.2,1.2-0.6"/>
		<path class="st0" d="M754.8,374.6c0.6,0.1,1-0.1,1.2-0.6"/>
		<path class="st0" d="M748.2,372.7c0.3,0.1,0.7,0,0.9-0.1"/>
		<path class="st0" d="M741,371.2c0.6,0.2,1.3,0.1,2,0.1"/>
		<path class="st0" d="M736.9,368.8c0.6,0.3,1.2,0.4,1.7,0.1"/>
		<path class="st0" d="M734.9,368.6c-0.5-0.2-1.2-0.5-1.3-0.6"/>
		<path class="st0" d="M740.4,365.6c-0.9-0.2-2-0.2-2.9-0.4"/>
		<path class="st0" d="M733.7,371.1c0.4,0,0.8,0,1.2,0"/>
		<path class="st0" d="M733,376c-0.4,0-0.9,0-1.3,0"/>
		<path class="st0" d="M733.3,378c0.5,0.1,1,0.1,1.2-0.3"/>
		<path class="st0" d="M730.4,375.4c0.3,0,0.6,0,0.9,0"/>
		<path class="st0" d="M733.3,373.6c0.3-0.2,0.6-0.4,1-0.4"/>
		<path class="st0" d="M738.6,378.7c0.6,0,1.3,0.1,1.7-0.1"/>
		<path class="st0" d="M741.5,376c0.5,0.1,1.1,0,1.6-0.1"/>
		<path class="st0" d="M741.7,372.8c0.4,0.1,0.8,0,1-0.1"/>
		<path class="st0" d="M745.1,377.7c0.6,0.1,1-0.2,1.2-0.7"/>
		<path class="st0" d="M746.4,368.4c0.3,0,0.7,0,1,0"/>
		<path class="st0" d="M751.5,369.8c0.4-0.1,0.8-0.4,1-0.7"/>
		<path class="st0" d="M749.8,377.5c0.2,0,0.5,0,0.7,0"/>
		<path class="st0" d="M749.5,375.4c0.7-0.1,1.6-0.4,2-0.9"/>
		<path class="st0" d="M745.7,383.4c0.3,0,0.7,0,1,0"/>
		<path class="st0" d="M739.5,383.8c0.5,0,1.1,0,1.6,0"/>
		<path class="st0" d="M739.5,381.1c0.6-0.1,1.1-0.1,1.6-0.3"/>
		<path class="st0" d="M732.7,383.8c0.7-0.1,1.3-0.2,2-0.1"/>
		<path class="st0" d="M734.2,386c0.4,0,0.7-0.1,0.7-0.4"/>
		<path class="st0" d="M732.6,381.9c0.3,0,0.7,0,1,0"/>
		<path class="st0" d="M738.1,385.7c0.4,0.1,0.8,0.1,1.2,0.1"/>
		<path class="st0" d="M742.7,385.5c0.4,0.2,0.8,0.2,1.2,0"/>
		<path class="st0" d="M742.5,389c0.5,0.1,1.1,0,1.4-0.1"/>
		<path class="st0" d="M741.8,381.8c0.3-0.2,0.6-0.2,0.9-0.1"/>
		<path class="st0" d="M746.3,386.7c0.3,0,0.7-0.1,1-0.1"/>
		<path class="st0" d="M747.9,380.9c0.1,0,0.2-0.1,0.3-0.1"/>
		<path class="st0" d="M748.3,384.5c0.1,0,0.2,0,0.3,0"/>
		<path class="st0" d="M750.8,380.8c0.3,0.1,0.6,0,0.9-0.1"/>
		<path class="st0" d="M753.8,383.1c0,0,0.1,0,0.1,0"/>
		<path class="st0" d="M757.1,382.2c0.4-0.1,0.8-0.1,1.2-0.1"/>
		<path class="st0" d="M755.4,378.9c0.2,0,0.4,0,0.6-0.1"/>
		<path class="st0" d="M758.1,378.9c0.2,0.1,0.4,0,0.4-0.1"/>
		<path class="st0" d="M756.7,375.1c0.4-0.2,0.8-0.4,1.2-0.6"/>
		<path class="st0" d="M752.8,375.9c0.2,0,0.5,0,0.7,0"/>
		<path class="st0" d="M752.4,373.7c0.3,0,0.6-0.2,0.7-0.3"/>
		<path class="st0" d="M748.9,373c0.1,0,0.3,0,0.4,0"/>
		<path class="st0" d="M743.8,372.7c0.1,0,0.2,0,0.3,0"/>
		<path class="st0" d="M742.1,368.4c0.2,0,0.5,0,0.7,0"/>
		<path class="st0" d="M738.5,370.7c0.3,0,0.7,0,1,0"/>
		<path class="st0" d="M739.1,366.8c0.5,0,1,0,1.4,0"/>
		<path class="st0" d="M733.6,365.9c0.4,0,0.8,0,1.2,0"/>
		<path class="st0" d="M731.1,371.7c0.2,0,0.4,0,0.6,0"/>
		<path class="st0" d="M724.2,385c-0.5,0-1.1,0-1.6,0"/>
		<path class="st0" d="M725.9,388.6c0.5,0,0.9-0.1,1-0.4"/>
		<path class="st0" d="M721.3,391.7c0.5,0,1-0.2,1.3-0.6"/>
		<path class="st0" d="M717.6,385c0.4-0.1,0.9,0,1.2,0.1"/>
		<path class="st0" d="M716,383.2c0.6,0.1,1.1-0.2,1.4-0.7"/>
		<path class="st0" d="M715.4,388.7c0.6-0.2,1.3-0.2,1.6-0.7"/>
		<path class="st0" d="M714.2,392c0.7,0,1.4-0.3,1.4-1"/>
		<path class="st0" d="M716.4,394.5c0.7,0,1.4-0.6,1-1.3"/>
		<path class="st0" d="M709.8,387.6c0.3-0.2,0.7-0.4,1-0.4"/>
		<path class="st0" d="M710.5,386.3c0.5-0.4,0.9-0.7,1.2-1.2"/>
		<path class="st0" d="M711.2,392.5c0.7-0.2,1.6-0.7,1.2-1.6"/>
		<path class="st0" d="M714,393.6c0.6,0.1,1.1-0.2,1.4-0.7"/>
		<path class="st0" d="M720,390c0.6-0.2,0.9-0.7,0.7-1.2"/>
		<path class="st0" d="M720.7,387c0.3-0.3,0.5-0.7,0.6-1.2"/>
		<path class="st0" d="M722.5,394.2c0.2,0.5,0,1.1-0.4,1.4"/>
		<path class="st0" d="M718.6,396.2c0.3,0,0.5-0.1,0.7-0.3"/>
		<path class="st0" d="M718.7,391.7c0.1-0.1,0.3-0.3,0.4-0.4"/>
		<path class="st0" d="M723.8,389c0.1-0.1,0.2-0.2,0.3-0.3"/>
		<path class="st0" d="M725.1,391.9c0.5-0.1,0.9-0.6,0.9-1.2"/>
		<path class="st0" d="M720.9,380.2c0.1-0.2,0.2-0.5,0.3-0.7"/>
		<path class="st0" d="M724.1,382.2c0.1-0.4,0-0.8-0.3-1.2"/>
		<path class="st0" d="M717.4,378.8c-0.1,0.4-0.3,0.7-0.6,1"/>
		<path class="st0" d="M712.7,382.6c0.3-0.2,0.6-0.4,0.9-0.7"/>
		<path class="st0" d="M719.9,383.8c0.4-0.4,0.5-1,0.4-1.6c-0.1,0-0.3,0-0.4,0"/>
		<path class="st0" d="M710.2,385.5c0.4-0.3,0.7-0.7,0.9-1.2"/>
		<path class="st0" d="M709.9,392.6c0.1-0.7,0-1.4-0.3-2"/>
		<path class="st0" d="M712.8,386.7c0.3-0.4,0.6-0.8,0.9-1.3"/>
		<path class="st0" d="M711.1,393.6c-0.2-0.6-0.2-1.2-0.6-1.7"/>
		<path class="st0" d="M716.8,407c0.5,0.1,1,0,1.4-0.4"/>
		<path class="st0" d="M714,408.8c0.3-0.1,0.5-0.3,0.7-0.6"/>
		<path class="st0" d="M711.8,404.2c0.6-0.1,1.1-0.3,1.6-0.4"/>
		<path class="st0" d="M709.6,407.8c0.9,0,1.6-0.3,2.3-0.9"/>
		<path class="st0" d="M713.2,406.2c0.1-0.3,0.2-0.6,0.1-0.9"/>
		<path class="st0" d="M710.6,409.6c0.7,0,1.1-0.6,1.4-1.2"/>
		<path class="st0" d="M715.5,404.4c0.1-0.2,0.2-0.3,0.3-0.4"/>
		<path class="st0" d="M768.5,409.2c0.6,0.3,1.2,0.5,1.9,0.6"/>
		<path class="st0" d="M765.8,413.4c0.6,0.4,1.4,0.6,2.2,0.6"/>
		<path class="st0" d="M763.6,415.9c0.5,0.1,0.9-0.1,1.2-0.6"/>
		<path class="st0" d="M763.2,408.5c0.4-0.1,0.8-0.2,1.2-0.1"/>
		<path class="st0" d="M760.4,413.7c0.4,0.1,0.8,0,1-0.3"/>
		<path class="st0" d="M759.6,415.7c0.3,0.1,0.5,0,0.7-0.3"/>
		<path class="st0" d="M763.9,410.7c0.6,0,1.1-0.2,1.6-0.6"/>
		<path class="st0" d="M759,410.2c0.2,0,0.4,0,0.6,0"/>
		<path class="st0" d="M759.4,412.8c0.3-0.4,0.9-0.6,1.4-0.7"/>
		<path class="st0" d="M762.9,413c0.2-0.1,0.4-0.2,0.4-0.4"/>
		<path class="st0" d="M767.5,411.2c0.4,0,0.9-0.1,1.2-0.4"/>
		<path class="st0" d="M767.7,416.7c-0.2,0.1-0.4,0.2-0.6,0.1"/>
		<path class="st0" d="M772,413.4c0.2-0.3,0.4-0.6,0.6-0.9"/>
		<path class="st0" d="M768.5,413.8c0.4-0.2,0.8-0.5,1.2-0.9"/>
		<path class="st0" d="M768.4,416.7c0.3,0.1,0.6,0,0.9-0.3"/>
		<path class="st0" d="M770.8,411.5c0.2-0.1,0.2-0.3,0.1-0.6"/>
		<path class="st0" d="M772.9,409.4c0.5-0.1,0.8-0.3,0.6-0.7"/>
		<path class="st0" d="M770.6,407.5c0.5-0.2,0.9-0.5,1.3-0.9"/>
		<path class="st0" d="M767.5,407.6c0.4,0,0.8-0.1,1.2-0.4"/>
		<path class="st0" d="M762.3,405.6c-0.1,0.1-0.2,0.3-0.3,0.4"/>
		<path class="st0" d="M761.5,410.7c0.1-0.7,0.5-1.4,0.4-2.2"/>
		<path class="st0" d="M763.9,406.6c0.1-0.2,0.4-0.4,0.6-0.6"/>
		<path class="st0" d="M765.1,409.8c0.4-0.3,0.8-0.5,1.3-0.6"/>
		<path class="st0" d="M764.5,413.1c0.2,0,0.5,0,0.7,0"/>
		<path class="st0" d="M763.9,415.4c0,0-0.1,0-0.1,0"/>
		<path class="st0" d="M760.9,416.9c0.4,0,0.8-0.1,1.2-0.3"/>
		<path class="st0" d="M764.8,418.5c0-0.1,0-0.2,0-0.3"/>
		<path class="st0" d="M755.3,401.7c1.1-0.5,2.2-0.8,3.2-1.3"/>
		<path class="st0" d="M754.1,400.6c1.6-0.1,4.2-1.6,4.6-3.2"/>
		<path class="st0" d="M752.1,398.7c2-0.3,4-1.8,5.3-3.2"/>
		<path class="st0" d="M748.6,396.9c0.6-1.4,0.3-3.2,0.3-4.8"/>
		<path class="st0" d="M742.7,416.4c3.3-3.2,2.9-9.7,2.9-13.9c0-3.3-0.6-7.2,0.1-10.4"/>
		<path class="st0" d="M747.9,419.9c1.4-2.9,1.5-8.7,0.3-11.7"/>
		<path class="st0" d="M741.2,423.2c0-2,0.1-3.8,0.4-5.8"/>
		<path class="st0" d="M742.7,406.9c0.1-1.8,0.5-3.6,0.4-5.5"/>
		<path class="st0" d="M748.3,404.7c-0.2-0.2-0.3-0.4-0.4-0.6"/>
		<path class="st0" d="M738.5,403.4c-1.6-1.6-3.5-3.4-5.5-4.5"/>
		<path class="st0" d="M728.5,399.3c-0.8-0.4-1.5-0.8-2.3-1.2"/>
		<path class="st0" d="M738.6,410.7c-0.9-1.5-3.2-4.6-5.1-4.8"/>
		<path class="st0" d="M728.3,396.7c0.6,0.2,1.2,0.6,1.9,0.6"/>
		<path class="st0" d="M730.6,400.1c0.3,0.4,0.6,0.8,0.9,1.2"/>
		<path class="st0" d="M733,402.1c0.5,0.2,1,0.5,1.4,0.9"/>
		<path class="st0" d="M729.8,402.9c0.3,0.4,0.8,0.7,1,0.6"/>
		<path class="st0" d="M735.5,409.2c-0.3-0.9-1-1.6-1.9-1.9"/>
		<path class="st0" d="M738.4,406.6c-0.3-0.3-0.7-0.5-1.2-0.7"/>
		<path class="st0" d="M743.4,395.9c0-0.6,0-1.2,0-1.7"/>
		<path class="st0" d="M747.9,399.8c-0.1-0.6-0.3-1.2-0.4-1.9"/>
		<path class="st0" d="M749.8,401.7c-0.1-0.8-0.3-1.6,0-2.3"/>
		<path class="st0" d="M747.3,402c0-0.4,0-0.7-0.1-1"/>
		<path class="st0" d="M750.8,407.8c0-0.8-0.2-1.5-0.4-2.2"/>
		<path class="st0" d="M751.2,419.6c0-1.3-0.2-2.5-0.1-3.8"/>
		<path class="st0" d="M746.2,415.9c0-0.2,0-0.4,0-0.6"/>
		<path class="st0" d="M745.7,425c0-0.8,0-1.5,0-2.3"/>
		<path class="st0" d="M749.5,426.8c0-0.8,0-1.5,0-2.3"/>
		<path class="st0" d="M744.6,419c0-0.2,0-0.4,0.1-0.6"/>
		<path class="st0" d="M741.7,409.4c0.1-0.2,0.2-0.5,0.3-0.7"/>
		<path class="st0" d="M739.2,419.8c0-0.6,0.2-1.1,0.4-1.6"/>
		<path class="st0" d="M739.2,425.5c0-0.3,0-0.6,0-0.9"/>
		<path class="st0" d="M743.6,427c-0.3-0.4-0.4-0.9-0.4-1.4"/>
	</g>
	<g>
		<path class="st0" d="M462.8,341.4c-0.7-0.7-3.5-5.5-4.5-1.9c-1.2,0.1-2.1-0.5-3.3-0.2c-1.6,0.5-1.1,1.6-1.7,2.6
			c-0.7,1.2-1.2,1.3-1.2,3c0,0.5,0.4,1,0.1,1.5c-0.3,0.6-1.4,0.4-1.8,1.2c-1.1,2,1.4,1.9,1.5,3.1c0.1,0.4-1,1.2-1.1,1.7
			c-0.1,0.6,0.1,1.3,0.5,1.7c0.4,0.4,1.2,0.4,1.5,0.8c0.3,0.5,0,1.4,0.3,2c0.7,1.2,2,1.3,3.3,1.3c0.1,1.3,0.4,2.2,1.7,2.3
			c1.1,0.1,1.9-1,2.8-0.9c1.1,0.1,0.9,1.4,2.3,1.1c1-0.2,0.8-1.2,1.7-1.6c1.4-0.5,1.6,1.7,3,1.3c1.5-0.4,0.1-2.2,1-2.8
			c0.7-0.5,1.7,1.5,2.9,0.7c0.6-0.5,0.2-2.1,0.5-2.8c0.5,0.1,1.6,0.4,2.2-0.1c0.6-0.6,0-1.5,0.3-2.2c0.4-0.9,1.2-0.8,1.2-2
			c0-0.7-0.5-1.4-0.6-2c1.5-0.9,0.5-2.9-0.8-3.3c0.1-1.7-0.9-2.6-2.5-2.6c0-1.7-0.6-2.3-2.3-2.2c-0.1-2.3-2.5-1.5-3.3-0.1
			c0-1.3-2.1-1.2-3-0.7c-1.1,0.6-0.9,1.2-0.8,2.3"/>
		<path class="st0" d="M436.9,352.9c-0.5-0.2-1.4-0.2-1.8,0.2c-0.7,0.6-0.1,1.2-0.6,1.8c-0.4,0.5-1.2,0.3-1.6,0.8
			c-0.6,0.8,0.1,1.1,0.3,1.6c0.2,0.8,0.4,0.4,0.3,1.3c-0.1,0.6-0.7,1-0.7,1.9c0,1.9,0.9,1.7,2.5,2c-0.3,1.9,0.5,3.1,2.6,3.1
			c0.9,0,1.2-0.6,2,0c0.8,0.6,0.2,1.3,1.6,1.4c1.4,0.1,1.1-0.9,1.9-1.3c0.9-0.4,1.5,0.3,2.5,0.3c2.8-0.1,1.9-2.2,2.5-3.9
			c1.7,0.1,3-0.7,2.7-2.5c-0.2-1-0.8-1-0.4-1.9c0.5-0.9,1.2-0.3,1.2-1.5c0.2-2.2-2-1.1-2.8-2.2c-0.3-0.4,0.2-1.3-0.3-1.8
			c-0.4-0.5-1.4-0.5-2-0.4c0.3-2.5-2-1.6-3.6-1.7c0.2-1.4-0.7-2.3-2.1-2c-1.8,0.4-1.2,1.5-1.2,2.9c-1.8,0-2.8-0.5-2.8,1.9"/>
		<path class="st0" d="M436.2,369.6c-0.9,0.1-2.3,1.5-0.6,1.7c0.1,1.2-2.6,1.5,0,2.8c-1.8,1.6,0.7,1.8,1.8,1.9
			c-0.1,0.9,0.1,1.7,1.1,1.7c0.8,0,0.8-1,1.6-1.2c0.6-0.2,1.1,0.9,1.9,0.1c0.6-0.6,0-1.4-0.1-2.2c1.9,0.3,2.8-2.3,0.5-2.7
			c1.6-1.3,0.4-1.9-1.1-1.9c0.1-1.1-0.8-1.7-1.7-1.2c0.2,2.3-0.9,0.4-1.4,0.1c-0.7-0.4-2.2-0.3-1.4,0.8"/>
		<path class="st0" d="M481.5,372.5c-0.7-1.1-1.8-1.7-3-0.8c-0.4,0.3-0.4,0.9-0.9,1.3c-0.6,0.4-0.9-0.3-1.4,0.6
			c-0.4,0.6,0.4,1.3,0.1,1.9c-0.2,0.5-1.1,0.4-1.6,0.8c-1.5,1.1-0.9,2.1,0.5,3c-0.8,0.8-0.4,2.2,0.4,2.7c1,0.6,1.7-0.2,3,0
			c-0.2,1.2,0.8,1.8,1.9,1.7c1.5-0.2,0.7-1,1.6-1.4c1.1-0.5,1.3,0.8,2.3,0.3c0.8-0.3,0.7-1.6,0.6-2.3c2.9-0.1,1.6-1.2,2.8-2.9
			c0.4-0.6,1.2-0.4,1.4-1.4c0.3-1.6-0.7-0.8-1.3-1.5c-0.4-0.6-0.1-1.7-0.9-2.2c-1.2-0.8-1.2,0.3-1.9,0.5c-1.2,0.4-0.7-0.3-1.6-0.5
			c-0.9-0.2-1.9,0-1.8,1.2"/>
		<path class="st0" d="M484,368.2c0.5,0.8,2.1,1.3,1.9-0.1c0.4,0,1.7,0.2,2-0.1c0.8-0.6-0.1-1,0.3-1.6c0.7-1.1,2.5-0.7,2.2-2.5
			c-0.1-0.6-1-1-1.1-1.4c-0.1-0.7,0.8-1.1,0.9-1.7c0.3-1.5-1.2-1.7-2.3-2.1c-0.1-1.2,0.2-2-1-2.6c-0.5-0.3-1.1-0.1-1.6-0.4
			c-0.4-0.3-0.3-1-0.9-1.3c-0.5-0.3-0.9,0.1-1.4,0c-0.8-0.1-0.6-0.1-1.3-0.4c-0.9-0.4-1.9-1.5-3-0.6c-0.5,0.3-0.4,1.3-0.6,1.5
			c-0.5,0.5-0.7,0.2-1.3,0.5c-1.5,0.7-1.1,0.5-1.4,2c-0.1,0.3,0.3,0.6,0.1,0.9c-0.1,0.3-0.6,0.2-0.8,0.4c-0.3,0.5-0.6,0.3-0.7,1
			c0,0.8,0.8,1.8,1.5,2.1c-3,1.3-0.1,1.9,1.1,2.8c-0.2,0.3-0.8,1.1-0.8,1.5c0.2,1.1,0.7,0.3,1.4,0.6c0.3,0.1,0.7-0.1,0.9,0.1
			c0.3,0.2,0,0.6,0.1,0.8c0.6,0.6-0.3,0.9,0.9,0.9c0.5,0,0.8-0.9,1.4-0.8c0.5,0.1,0.7,1,1.1,1.3c1.2,0.6,3.2-0.5,1.7-1.7"/>
		<path class="st0" d="M461.6,359.6c0.8,5.6-0.5,11.1-1.6,16.5c-0.6,2.8-0.7,5.9-1.7,8.6c-0.8,2.2-2.8,4.9,0.9,5.6
			c1.5,0.3,3,0.2,4.5,0.7c1.6,0.4,2.9,0.9,4.4,0c2.1-1.4,2.3-4.7,2.5-7c0.3-2.9,0-6-0.2-8.9c-0.1-2.4-0.7-4.8-1.1-7.1
			c-0.5-2.4-0.4-5.5-1.4-7.8"/>
		<path class="st0" d="M444.4,365.4c1.6,2.1,4.8,4.3,7,6.3c3,2.7,5.7,5.6,7.9,8.9"/>
		<path class="st0" d="M450.5,362.4c1.8,0.6,3.6,2.2,5.1,3.3c2.2,1.5,3.6,3.9,5.8,5.3"/>
		<path class="st0" d="M442.9,371.6c2.5-0.9,6.5-0.3,9.2-0.3"/>
		<path class="st0" d="M441.6,369.7c1.2-1.1,4.5-1,6.2-0.9"/>
		<path class="st0" d="M469.8,371.3c1.3,0.5,7.7-2.5,8.9-3.9"/>
		<path class="st0" d="M468.4,365.5c0.3-0.3,1.6-0.7,2.3-0.9c1.4-0.6,2.5-1.3,3.6-2.3"/>
		<path class="st0" d="M473.2,371.1c0.6,1.2,2.1,2.9,3.3,3.4"/>
		<path class="st0" d="M477.7,372.4c-1-0.8-1.6-2-2.5-2.8"/>
		<path class="st0" d="M465.4,351.7c-0.6,0-1.2,0-1.9,0"/>
		<path class="st0" d="M458,346.1c0.7-0.1,1.3,0.1,1.9,0.5"/>
		<path class="st0" d="M464.5,347.5c0.8,0,1.6,0,2.3,0"/>
		<path class="st0" d="M471,349.4c0.5,0,0.9,0,1.4,0"/>
		<path class="st0" d="M465,343.8c0.3,0,0.6,0,0.9,0"/>
		<path class="st0" d="M454.2,351.7c1.1,0,2.2,0,3.3,0"/>
		<path class="st0" d="M458.9,357.3c0.6,0,1.2,0,1.9,0"/>
		<path class="st0" d="M461.2,354.5c-0.5,0-0.9,0-1.4,0"/>
		<path class="st0" d="M457,347.5c0.6,0,1.2,0,1.9,0"/>
		<path class="st0" d="M466.4,357.8c-0.6,0-1.2,0-1.9,0"/>
		<path class="st0" d="M482.7,359.7c0.6,0,1.2,0,1.9,0"/>
		<path class="st0" d="M483.4,357.6c0.2,0.1,0.5,0.1,0.7,0.1"/>
		<path class="st0" d="M479.1,357.8c0.2,0.2,0.5,0.2,0.7,0.1"/>
		<path class="st0" d="M480,361.3c0.3,0.2,0.8,0.3,1.1,0.1"/>
		<path class="st0" d="M480.6,356c0.4,0,0.7,0.1,1.1,0.1"/>
		<path class="st0" d="M476.9,359.7c0.1,0,0.2,0,0.2-0.1"/>
		<path class="st0" d="M481.8,358.6c0.3-0.1,0.6-0.1,0.8-0.2"/>
		<path class="st0" d="M478.2,360.1c0.1,0,0.2,0,0.4,0"/>
		<path class="st0" d="M486,362c0.4,0,0.8,0,1.2,0"/>
		<path class="st0" d="M486.8,359.5c0.2,0,0.3-0.1,0.3-0.2"/>
		<path class="st0" d="M483.5,363c0.4,0.1,0.7,0,1.1-0.1"/>
		<path class="st0" d="M485.2,366.2c0.3,0.1,0.7,0,0.9-0.1"/>
		<path class="st0" d="M486.9,364.6c0.4,0.1,0.8,0,0.9-0.2"/>
		<path class="st0" d="M481,364.6c0.2,0,0.3,0,0.5,0"/>
		<path class="st0" d="M482,366.8c0.3,0,0.6,0,0.8-0.1"/>
		<path class="st0" d="M477.5,362.7c0.2,0.1,0.5,0.2,0.8,0.1"/>
		<path class="st0" d="M478.8,366.3c0.3,0.1,0.5,0,0.5-0.2"/>
		<path class="st0" d="M479.5,363c0.3,0,0.5,0,0.8,0"/>
		<path class="st0" d="M483.8,364.9c0.2,0,0.4,0,0.6,0"/>
		<path class="st0" d="M477.7,363.6c0.2,0,0.3,0,0.5,0"/>
		<path class="st0" d="M483,361.3c0.2,0.1,0.5,0.2,0.7,0.1"/>
		<path class="st0" d="M479.7,359.2c0.2,0,0.4,0,0.6,0"/>
		<path class="st0" d="M477.3,356.4c0.1,0,0.2,0,0.3,0"/>
		<path class="st0" d="M476.6,358c0.2,0,0.3,0,0.5,0"/>
		<path class="st0" d="M484.9,357.1c0.2,0,0.5,0,0.7,0"/>
		<path class="st0" d="M482.8,355.2c0.1,0.2,0.3,0.3,0.5,0.2"/>
		<path class="st0" d="M487.6,360.9c0.4,0.3,0.8,0.4,1.3,0.4"/>
		<path class="st0" d="M472.1,352.5c0.2,0,0.4-0.1,0.5-0.2"/>
		<path class="st0" d="M468.7,355c0.5,0,1.1,0.1,1.5-0.2"/>
		<path class="st0" d="M468,350.9c0.4,0.1,0.7,0,1.1-0.1"/>
		<path class="st0" d="M470.1,345.1c0.4,0,0.8-0.1,0.9-0.5"/>
		<path class="st0" d="M472.1,347.3c0.4,0.1,0.8-0.1,0.9-0.5"/>
		<path class="st0" d="M466.7,345.8c0.3,0.1,0.6,0,0.7-0.1"/>
		<path class="st0" d="M460.9,344.6c0.5,0.2,1.1,0.1,1.6,0.1"/>
		<path class="st0" d="M457.6,342.6c0.5,0.2,0.9,0.3,1.4,0.1"/>
		<path class="st0" d="M456,342.5c-0.4-0.1-1-0.4-1.1-0.5"/>
		<path class="st0" d="M460.4,340c-0.8-0.2-1.6-0.1-2.3-0.4"/>
		<path class="st0" d="M455,344.5c0.3,0,0.6,0,0.9,0"/>
		<path class="st0" d="M454.5,348.4c-0.3,0-0.7,0-1.1,0"/>
		<path class="st0" d="M454.7,350.1c0.4,0.1,0.8,0.1,0.9-0.2"/>
		<path class="st0" d="M452.4,348c0.2,0,0.5,0,0.7,0"/>
		<path class="st0" d="M454.7,346.5c0.2-0.2,0.5-0.3,0.8-0.4"/>
		<path class="st0" d="M459,350.7c0.5,0,1,0,1.4-0.1"/>
		<path class="st0" d="M461.3,348.4c0.4,0,0.9,0,1.3-0.1"/>
		<path class="st0" d="M461.5,345.9c0.3,0.1,0.6,0,0.8-0.1"/>
		<path class="st0" d="M464.3,349.8c0.5,0.1,0.8-0.1,0.9-0.6"/>
		<path class="st0" d="M465.3,342.3c0.3,0,0.5,0,0.8,0"/>
		<path class="st0" d="M469.4,343.4c0.3-0.1,0.6-0.3,0.8-0.6"/>
		<path class="st0" d="M468,349.6c0.2,0,0.4,0,0.6,0"/>
		<path class="st0" d="M467.8,348c0.6-0.1,1.3-0.3,1.6-0.7"/>
		<path class="st0" d="M464.7,354.4c0.3,0,0.5,0,0.8,0"/>
		<path class="st0" d="M459.7,354.8c0.4,0,0.9,0,1.3,0"/>
		<path class="st0" d="M459.7,352.5c0.4,0,0.9-0.1,1.3-0.2"/>
		<path class="st0" d="M454.2,354.8c0.5,0,1.1-0.1,1.6-0.1"/>
		<path class="st0" d="M455.4,356.5c0.3,0,0.5-0.1,0.6-0.4"/>
		<path class="st0" d="M454.1,353.2c0.3,0,0.5,0,0.8,0"/>
		<path class="st0" d="M458.5,356.3c0.3,0.1,0.6,0.1,0.9,0.1"/>
		<path class="st0" d="M462.3,356.2c0.3,0.1,0.7,0.2,0.9,0"/>
		<path class="st0" d="M462.2,359c0.4,0.1,0.9,0,1.2-0.1"/>
		<path class="st0" d="M461.6,353.1c0.2-0.1,0.5-0.2,0.7-0.1"/>
		<path class="st0" d="M465.2,357.1c0.3,0,0.6,0,0.8-0.1"/>
		<path class="st0" d="M466.5,352.4c0.1,0,0.2-0.1,0.2-0.1"/>
		<path class="st0" d="M466.8,355.3c0.1,0,0.2,0,0.2,0"/>
		<path class="st0" d="M468.8,352.3c0.3,0,0.5,0,0.7-0.1"/>
		<path class="st0" d="M471.3,354.2c0,0,0.1,0,0.1,0"/>
		<path class="st0" d="M474,353.5c0.3-0.1,0.6-0.1,0.9-0.1"/>
		<path class="st0" d="M472.6,350.8c0.2,0,0.3,0,0.5-0.1"/>
		<path class="st0" d="M474.8,350.8c0.2,0,0.3,0,0.3-0.1"/>
		<path class="st0" d="M473.6,347.7c0.3-0.2,0.6-0.3,0.9-0.5"/>
		<path class="st0" d="M470.5,348.3c0.2,0,0.4,0,0.6,0"/>
		<path class="st0" d="M470.1,346.6c0.2,0,0.5-0.1,0.6-0.2"/>
		<path class="st0" d="M467.3,346c0.1,0,0.2,0,0.4,0"/>
		<path class="st0" d="M463.2,345.8c0.1,0,0.2,0,0.2,0"/>
		<path class="st0" d="M461.8,342.3c0.2,0,0.4,0,0.6,0"/>
		<path class="st0" d="M458.9,344.1c0.3,0,0.5,0,0.8,0"/>
		<path class="st0" d="M459.4,341c0.4,0,0.8,0,1.2,0"/>
		<path class="st0" d="M454.9,340.3c0.3,0,0.6,0,0.9,0"/>
		<path class="st0" d="M452.9,344.9c0.2,0,0.3,0,0.5,0"/>
		<path class="st0" d="M447.3,355.7c-0.4,0-0.9,0-1.3,0"/>
		<path class="st0" d="M448.7,358.6c0.4,0,0.7-0.1,0.8-0.4"/>
		<path class="st0" d="M445,361.2c0.4,0,0.8-0.2,1-0.5"/>
		<path class="st0" d="M442,355.7c0.3-0.1,0.7,0,0.9,0.1"/>
		<path class="st0" d="M440.7,354.3c0.5,0.1,0.9-0.2,1.2-0.6"/>
		<path class="st0" d="M440.2,358.7c0.5-0.1,1-0.1,1.3-0.6"/>
		<path class="st0" d="M439.3,361.4c0.6,0,1.1-0.3,1.2-0.8"/>
		<path class="st0" d="M441,363.4c0.6,0,1.1-0.5,0.8-1.1"/>
		<path class="st0" d="M435.7,357.8c0.2-0.2,0.5-0.3,0.8-0.4"/>
		<path class="st0" d="M436.2,356.7c0.4-0.3,0.8-0.5,0.9-0.9"/>
		<path class="st0" d="M436.8,361.8c0.6-0.2,1.3-0.6,0.9-1.3"/>
		<path class="st0" d="M439,362.7c0.5,0,0.9-0.2,1.2-0.6"/>
		<path class="st0" d="M443.9,359.8c0.5-0.2,0.8-0.6,0.6-0.9"/>
		<path class="st0" d="M444.5,357.3c0.2-0.3,0.4-0.6,0.5-0.9"/>
		<path class="st0" d="M445.9,363.2c0.1,0.4,0,0.9-0.4,1.2"/>
		<path class="st0" d="M442.8,364.8c0.2,0,0.4-0.1,0.6-0.2"/>
		<path class="st0" d="M442.9,361.2c0.1-0.1,0.2-0.2,0.3-0.4"/>
		<path class="st0" d="M447,359c0.1,0,0.2-0.1,0.2-0.2"/>
		<path class="st0" d="M448,361.3c0.4-0.1,0.7-0.5,0.7-0.9"/>
		<path class="st0" d="M444.6,351.8c0.1-0.2,0.2-0.4,0.2-0.6"/>
		<path class="st0" d="M447.2,353.5c0.1-0.4,0-0.7-0.2-0.9"/>
		<path class="st0" d="M441.8,350.7c-0.1,0.3-0.3,0.6-0.5,0.8"/>
		<path class="st0" d="M438,353.8c0.3-0.2,0.5-0.4,0.7-0.6"/>
		<path class="st0" d="M443.8,354.8c0.3-0.4,0.4-0.8,0.3-1.3c-0.1,0-0.2,0-0.3,0"/>
		<path class="st0" d="M436,356.2c0.3-0.3,0.5-0.6,0.7-0.9"/>
		<path class="st0" d="M435.8,361.9c0-0.6,0-1.1-0.2-1.6"/>
		<path class="st0" d="M438.1,357.1c0.3-0.3,0.5-0.7,0.7-1.1"/>
		<path class="st0" d="M436.7,362.7c-0.2-0.5-0.2-1-0.5-1.4"/>
		<path class="st0" d="M441.4,373.6c0.4,0.1,0.8,0,1.2-0.4"/>
		<path class="st0" d="M439,375c0.2-0.1,0.4-0.3,0.6-0.5"/>
		<path class="st0" d="M437.3,371.2c0.4,0,0.9-0.2,1.3-0.4"/>
		<path class="st0" d="M435.5,374.1c0.7,0,1.3-0.3,1.9-0.7"/>
		<path class="st0" d="M438.5,372.9c0.1-0.2,0.1-0.5,0.1-0.7"/>
		<path class="st0" d="M436.4,375.7c0.6,0,0.9-0.5,1.2-0.9"/>
		<path class="st0" d="M440.3,371.5c0.1-0.1,0.1-0.2,0.2-0.4"/>
		<path class="st0" d="M483.2,375.3c0.5,0.2,1,0.4,1.5,0.5"/>
		<path class="st0" d="M481,378.7c0.5,0.3,1.1,0.5,1.8,0.5"/>
		<path class="st0" d="M479.2,380.7c0.4,0.1,0.8-0.1,0.9-0.5"/>
		<path class="st0" d="M478.9,374.7c0.3-0.1,0.6-0.1,0.9-0.1"/>
		<path class="st0" d="M476.6,378.9c0.3,0.1,0.6,0,0.8-0.2"/>
		<path class="st0" d="M475.9,380.6c0.2,0,0.4,0,0.6-0.2"/>
		<path class="st0" d="M479.5,376.5c0.5,0,0.9-0.2,1.3-0.5"/>
		<path class="st0" d="M475.5,376.1c0.2,0,0.3,0,0.5,0"/>
		<path class="st0" d="M475.8,378.2c0.3-0.3,0.7-0.5,1.2-0.6"/>
		<path class="st0" d="M478.6,378.3c0.2-0.1,0.3-0.2,0.3-0.4"/>
		<path class="st0" d="M482.4,376.9c0.4,0,0.7-0.1,0.9-0.4"/>
		<path class="st0" d="M482.5,381.4c-0.1,0.1-0.3,0.1-0.5,0.1"/>
		<path class="st0" d="M486,378.7c0.2-0.2,0.4-0.5,0.5-0.7"/>
		<path class="st0" d="M483.2,379c0.3-0.2,0.7-0.4,0.9-0.7"/>
		<path class="st0" d="M483.1,381.4c0.3,0.1,0.5,0,0.7-0.2"/>
		<path class="st0" d="M485.1,377.2c0.1-0.1,0.2-0.3,0.1-0.5"/>
		<path class="st0" d="M486.7,375.4c0.4,0,0.7-0.2,0.5-0.6"/>
		<path class="st0" d="M484.8,373.9c0.4-0.2,0.7-0.4,1.1-0.7"/>
		<path class="st0" d="M482.4,374c0.3,0,0.7-0.1,0.9-0.4"/>
		<path class="st0" d="M478.2,372.4c-0.1,0.1-0.2,0.2-0.2,0.4"/>
		<path class="st0" d="M477.5,376.5c0.1-0.6,0.4-1.1,0.4-1.8"/>
		<path class="st0" d="M479.5,373.2c0.1-0.2,0.3-0.4,0.5-0.5"/>
		<path class="st0" d="M480.4,375.8c0.3-0.2,0.7-0.4,1.1-0.5"/>
		<path class="st0" d="M479.9,378.5c0.2,0,0.4,0,0.6,0"/>
		<path class="st0" d="M479.5,380.3c0,0-0.1,0-0.1,0"/>
		<path class="st0" d="M477,381.5c0.3,0,0.7-0.1,0.9-0.2"/>
		<path class="st0" d="M480.2,382.8c0-0.1,0-0.2,0-0.2"/>
		<path class="st0" d="M472.4,369.2c0.9-0.4,1.7-0.6,2.6-1.1"/>
		<path class="st0" d="M471.5,368.3c1.3-0.1,3.4-1.3,3.7-2.6"/>
		<path class="st0" d="M469.9,366.8c1.6-0.3,3.2-1.4,4.3-2.6"/>
		<path class="st0" d="M467.1,365.4c0.5-1.2,0.2-2.6,0.2-3.9"/>
		<path class="st0" d="M462.3,381.1c2.7-2.6,2.3-7.8,2.3-11.2c0-2.6-0.5-5.8,0.1-8.4"/>
		<path class="st0" d="M466.5,383.9c1.2-2.4,1.2-7,0.2-9.5"/>
		<path class="st0" d="M461.1,386.6c0-1.6,0.1-3.1,0.4-4.7"/>
		<path class="st0" d="M462.3,373.4c0.1-1.5,0.4-2.9,0.3-4.4"/>
		<path class="st0" d="M466.8,371.7c-0.1-0.1-0.3-0.3-0.3-0.5"/>
		<path class="st0" d="M458.9,370.6c-1.3-1.3-2.8-2.7-4.4-3.6"/>
		<path class="st0" d="M450.8,367.2c-0.6-0.3-1.2-0.7-1.9-0.9"/>
		<path class="st0" d="M459,376.5c-0.8-1.2-2.6-3.7-4.1-3.9"/>
		<path class="st0" d="M450.6,365.1c0.5,0.2,1,0.4,1.5,0.5"/>
		<path class="st0" d="M452.5,367.9c0.2,0.3,0.4,0.6,0.7,0.9"/>
		<path class="st0" d="M454.5,369.6c0.4,0.2,0.8,0.4,1.2,0.7"/>
		<path class="st0" d="M451.9,370.2c0.3,0.3,0.6,0.5,0.8,0.5"/>
		<path class="st0" d="M456.4,375.3c-0.2-0.7-0.8-1.3-1.5-1.5"/>
		<path class="st0" d="M458.8,373.2c-0.2-0.2-0.6-0.4-0.9-0.6"/>
		<path class="st0" d="M462.9,364.6c0-0.5,0-0.9,0-1.4"/>
		<path class="st0" d="M466.5,367.7c-0.1-0.5-0.2-1-0.3-1.5"/>
		<path class="st0" d="M468,369.2c-0.1-0.6-0.2-1.3,0-1.9"/>
		<path class="st0" d="M466,369.5c0-0.3,0-0.6-0.1-0.8"/>
		<path class="st0" d="M468.8,374.1c0-0.6-0.1-1.2-0.4-1.8"/>
		<path class="st0" d="M469.2,383.7c0-1-0.1-2-0.1-3"/>
		<path class="st0" d="M465.1,380.7c0-0.2,0-0.3,0-0.5"/>
		<path class="st0" d="M464.7,388c0-0.6,0-1.2,0-1.9"/>
		<path class="st0" d="M467.8,389.6c0-0.6,0-1.2,0-1.9"/>
		<path class="st0" d="M463.8,383.2c0-0.2,0-0.3,0.1-0.5"/>
		<path class="st0" d="M461.5,375.4c0.1-0.2,0.2-0.4,0.2-0.6"/>
		<path class="st0" d="M459.5,383.8c0-0.4,0.2-0.9,0.3-1.3"/>
		<path class="st0" d="M459.5,388.5c0-0.2,0-0.5,0-0.7"/>
		<path class="st0" d="M463,389.7c-0.2-0.3-0.3-0.8-0.4-1.2"/>
	</g>
	<g>
		<path class="st0" d="M716.4,228.7c1.8-2.5-0.4-5-2.8-5.9c-3.1-1.2-7.8-1.2-10.7,0.3c-2.5,1.3-4.4,2.8-5.6,5.5
			c-1.1,2.4-1,5.4,1,7.4c3.7,3.7,9.2,3.3,13.8,2.4c2-0.4,4.2-1.5,5.1-3.5c0.8-1.9,0.4-4.9-1.3-6.2c-2-1.6-5-1.8-7.4-1.6
			c-2.2,0.1-6.1,0.8-7.3,2.9"/>
	</g>
	<g>
		<path class="st0" d="M433.4,418.7c1.8-2.5-0.4-5-2.8-5.9c-3.1-1.2-7.8-1.2-10.7,0.3c-2.5,1.3-4.4,2.8-5.6,5.5
			c-1.1,2.4-1,5.4,1,7.4c3.7,3.7,9.2,3.3,13.8,2.4c2-0.4,4.2-1.5,5.1-3.5c0.8-1.9,0.4-4.9-1.3-6.2c-2-1.6-5-1.8-7.4-1.6
			c-2.2,0.1-6.1,0.8-7.3,2.9"/>
	</g>
	<g>
		<path class="st0" d="M692.2,527.9c-0.3,0.6,0,1.3,0,2c-0.4-0.4-0.7-1-1-1.5c-0.1,0.5,0.2,1.2,0.4,1.8c-0.6-0.6-1.3-1.4-2-1.8
			c0.3,0.7,0.8,1.5,1,2.2c0.9,3.1-0.6,5.6-2.5,7.9c-2.4,2.9-4.7,6.3-5.7,10c-0.9,3.4-0.7,7.6,1.2,10.7c2.2,3.7,5.7,5.5,9.7,6.7
			c6.9,2.1,13.5-0.4,19-4.4c5.1-3.7,10.8-5.9,11.1-13c0.2-3.3,0.1-7.3-2.2-10c-2.1-2.5-5.9-4.6-9.2-4.9c-3.7-0.4-7.6,0.2-11.4,0
			c-2.9-0.2-7.9-1.7-8.5-5.1"/>
		<path class="st0" d="M707.4,563.9c1.1,1.3,1.1,3,1.7,4.6c0.5-0.7,0.3-2,0.3-3c0.1,0.7,0.4,1.3,0.8,1.8c0-0.8-0.1-1.6-0.5-2.3
			c1.4,0.9,2,3.6,2.7,5.1c0.1-1.6-0.4-3.9-1.1-5.4c0.3,0.4,0.9,0.6,1.3,0.8c-0.2-0.3-0.4-0.8-0.6-1.1c0.5,0.5,0.9,1,1.4,1.5
			c-0.2-0.9-0.7-1.7-1.2-2.5c1.7,0.8,2.8,2.5,4.8,2.8c-1.5-0.8-2.5-2.2-3.8-3.3c0.9,0.9,2.3,1.9,3.7,1.6c-1-0.7-2.3-1.5-3.3-2
			c1.5,0.7,3,1.7,4.7,1.1c-2-0.4-3.9-1.4-5.4-2.8"/>
		<path class="st0" d="M710.3,560.5c-3.3-0.1-8.2-4.9-10-7.6c-1.7-2.5-2-6.1-2.7-9c-1.2-5.2-2.4-9.7-7-12.8"/>
		<path class="st0" d="M710.6,557.3c-0.4-1.8-0.5-3.8-1.3-5.4c-1.2-2.4-3.2-4.6-4.6-6.9c-1.5-2.4-3.1-4.7-4.7-7
			c-0.6-0.8-1.4-2.1-2.4-2.2"/>
		<path class="st0" d="M715.7,554.9c0.6-0.9-0.4-3.4-0.7-4.4c-0.6-2.4-1.7-4.5-3.1-6.6c-1.6-2.4-3.5-4.2-5.6-6.1
			c-0.8-0.7-1.4-1.6-2.5-1.3"/>
		<path class="st0" d="M719.5,552.2c3.1,0.1-1-9.6-1.7-10.9c-1.9-3.3-4.4-6.2-8.4-6.1"/>
		<path class="st0" d="M704.5,562.4c-3.8-1.9-7.4-4.2-9.5-8.1c-1.2-2.3-2-5-2.1-7.6c-0.1-3.4-1.3-6.7-1.2-10"/>
		<path class="st0" d="M699.4,564c-2.4,2.3-8.3-6.5-9.3-8.1c-1.5-2.3-2.2-4.7-2.4-7.4c-0.1-1.3-0.7-4.5,0.2-5.4"/>
		<path class="st0" d="M694,564.2c-3.6-1.6-6.3-4.5-8.6-7.6c-1.5-2-3.2-6.6-1.2-8.8"/>
	</g>
	<g>
		<path class="st0" d="M595,296.9c-0.3,0.6,0,1.3,0,2c-0.4-0.4-0.7-1-1-1.5c-0.1,0.5,0.2,1.2,0.4,1.8c-0.6-0.6-1.3-1.4-2-1.8
			c0.3,0.7,0.8,1.5,1,2.2c0.9,3.1-0.6,5.6-2.5,7.9c-2.4,2.9-4.7,6.3-5.7,10c-0.9,3.4-0.7,7.6,1.2,10.7c2.2,3.7,5.7,5.5,9.7,6.7
			c6.9,2.1,13.5-0.4,19-4.4c5.1-3.7,10.8-5.9,11.1-13c0.2-3.3,0.1-7.3-2.2-10c-2.1-2.5-5.9-4.6-9.2-4.9c-3.7-0.4-7.6,0.2-11.4,0
			c-2.9-0.2-7.9-1.7-8.5-5.1"/>
		<path class="st0" d="M610.2,332.8c1.1,1.3,1.1,3,1.7,4.6c0.5-0.7,0.3-2,0.3-3c0.1,0.7,0.4,1.3,0.8,1.8c0-0.8-0.1-1.6-0.5-2.3
			c1.4,0.9,2,3.6,2.7,5.1c0.1-1.6-0.4-3.9-1.1-5.4c0.3,0.4,0.9,0.6,1.3,0.8c-0.2-0.3-0.4-0.8-0.6-1.1c0.5,0.5,0.9,1,1.4,1.5
			c-0.2-0.9-0.7-1.7-1.2-2.5c1.7,0.8,2.8,2.5,4.8,2.8c-1.5-0.8-2.5-2.2-3.8-3.3c0.9,0.9,2.3,1.9,3.7,1.6c-1-0.7-2.3-1.5-3.3-2
			c1.5,0.7,3,1.7,4.7,1.1c-2-0.4-3.9-1.4-5.4-2.8"/>
		<path class="st0" d="M613.1,329.4c-3.3-0.1-8.2-4.9-10-7.6c-1.7-2.5-2-6.1-2.7-9c-1.2-5.2-2.4-9.7-7-12.8"/>
		<path class="st0" d="M613.4,326.2c-0.4-1.8-0.5-3.8-1.3-5.4c-1.2-2.4-3.2-4.6-4.6-6.9c-1.5-2.4-3.1-4.7-4.7-7
			c-0.6-0.8-1.4-2.1-2.4-2.2"/>
		<path class="st0" d="M618.5,323.8c0.6-0.9-0.4-3.4-0.7-4.4c-0.6-2.4-1.7-4.5-3.1-6.6c-1.6-2.4-3.5-4.2-5.6-6.1
			c-0.8-0.7-1.4-1.6-2.5-1.3"/>
		<path class="st0" d="M622.3,321.1c3.1,0.1-1-9.6-1.7-10.9c-1.9-3.3-4.4-6.2-8.4-6.1"/>
		<path class="st0" d="M607.3,331.3c-3.8-1.9-7.4-4.2-9.5-8.1c-1.2-2.3-2-5-2.1-7.6c-0.1-3.4-1.3-6.7-1.2-10"/>
		<path class="st0" d="M602.2,333c-2.4,2.3-8.3-6.5-9.3-8.1c-1.5-2.3-2.2-4.7-2.4-7.4c-0.1-1.3-0.7-4.5,0.2-5.4"/>
		<path class="st0" d="M596.8,333.2c-3.6-1.6-6.3-4.5-8.6-7.6c-1.5-2-3.2-6.6-1.2-8.8"/>
	</g>
	<g>
		<path class="st0" d="M725.2,294.1c-4-2.6-11.6-0.4-15.9,0.5c-2.8,0.6-5.7,1.5-8.4,2.6c-1.9,0.8-1.4,1.1-3.6-0.4
			c-1.7-1.1-3.4-2.1-5.3-3c3,0,5.8,0.8,8.7,0.9c-0.7-1.1-1.8-2.2-3-2.9c2.4-0.4,4.5,1.1,6.9,1c-1-1.1-1.7-2.9-1.6-4.3
			c1.6,1.1,3.6,2,5.3,2.8c-0.1-1.9-1.3-3.7-1.4-5.5c2.1,0.9,3,3.5,5.1,4.6c0-1.9-0.8-3.8-0.3-5.6c1.6,1.5,3.1,3,4.2,5
			c0.7-1.3,0.1-3.2,0.5-4.7c0.8,1.7,1.9,4,3.4,5c0.7-1.3,1.6-2.8,2.5-3.9c1,1.2,1.2,3.3,2.4,4.4c1.1-2,3.2-5,5.7-4.8
			c-1,2.5-3,5.5-3.6,8.3"/>
		<path class="st1" d="M702.4,299c-2,3.8-2.9,6.4-1.2,10.8c1.4,3.6,4.6,6.5,7.4,9.3c5.9,5.9,13.6,7,18.1-0.8c1.7-2.9,3.1-6.6,3.4-10
			c0.3-3.1,0.7-9-1.2-11.5c-2.4-3-9.7-2.4-13.2-2c-4.5,0.4-11.1,2.2-13.9,6.2"/>
		<path class="st0" d="M723.8,305.4c-0.5-0.9-0.7-1.9-0.7-2.9"/>
		<path class="st0" d="M709.9,305.8c-0.4-0.6-0.5-1.4-0.4-2.2"/>
		<path class="st0" d="M715.7,305c-0.3-1-0.5-2.4-0.4-2.9"/>
		<path class="st0" d="M717.6,314.6c-0.6-0.8-1-1.9-1.1-2.9"/>
		<path class="st0" d="M712.4,308.3c0.2,0.2,0.5,0.5,0.7,0.7"/>
		<path class="st0" d="M714.6,317.9c-0.4-0.4-0.5-0.9-0.4-1.5"/>
		<path class="st0" d="M719,307.6c0-0.5-0.1-1-0.4-1.5"/>
		<path class="st0" d="M722.3,314.6c0-0.7,0-1.5,0-2.2"/>
		<path class="st0" d="M705.8,310.2c-0.3-0.3-0.5-0.7-0.4-1.1"/>
		<path class="st0" d="M712.4,314.2c-0.2-0.4-0.5-0.7-0.7-1.1"/>
		<path class="st0" d="M712.1,301.7c-0.2-0.6-0.1-1.2,0.4-1.5"/>
		<path class="st0" d="M719,300.3c0-0.4,0-0.7,0-1.1"/>
		<path class="st0" d="M728.2,304.7c0.1,0.8,0,1.5-0.4,2.2"/>
		<path class="st0" d="M725.3,313.5c0.1-0.3,0.2-0.5,0.4-0.7"/>
		<path class="st0" d="M719,320.1c0.4-0.4,0.7-0.6,1.1-0.4"/>
		<path class="st0" d="M726,299.5c-0.1-0.7-0.5-1.2-1.1-1.5"/>
		<path class="st0" d="M719.4,304.7c-0.1-0.3-0.2-0.5-0.4-0.7"/>
		<path class="st0" d="M703.6,302.1c0.1-0.1,0.2-0.2,0.4-0.4"/>
		<path class="st0" d="M708.8,309.4c-0.4-0.3-0.8-0.7-1.1-1.1"/>
		<path class="st0" d="M709.1,315.7c-0.5-0.3-1-0.7-1.5-1.1"/>
	</g>
	<g>
		<path class="st0" d="M607.9,508.5c-3.3-2.1-9.4-0.3-13,0.4c-2.3,0.5-4.6,1.2-6.9,2.1c-1.6,0.6-1.2,0.9-2.9-0.3
			c-1.4-0.9-2.8-1.7-4.4-2.5c2.5,0,4.8,0.6,7.1,0.8c-0.6-0.9-1.5-1.8-2.5-2.3c1.9-0.3,3.7,0.9,5.6,0.8c-0.8-0.9-1.4-2.3-1.3-3.6
			c1.3,0.9,2.9,1.6,4.4,2.3c-0.1-1.5-1-3-1.2-4.5c1.7,0.7,2.4,2.9,4.1,3.8c0-1.5-0.6-3.1-0.2-4.6c1.3,1.3,2.5,2.5,3.4,4.1
			c0.5-1.1,0.1-2.6,0.4-3.8c0.7,1.4,1.6,3.3,2.8,4.1c0.6-1.1,1.3-2.3,2-3.2c0.9,1,1,2.7,1.9,3.6c0.9-1.6,2.6-4.1,4.6-4
			c-0.8,2.1-2.5,4.5-3,6.8"/>
		<path class="st1" d="M589.3,512.5c-1.7,3.1-2.4,5.2-1,8.8c1.1,3,3.7,5.3,6,7.6c4.9,4.8,11.1,5.7,14.8-0.6c1.4-2.4,2.5-5.4,2.8-8.2
			c0.2-2.5,0.6-7.4-1-9.4c-1.9-2.4-8-1.9-10.8-1.7c-3.7,0.3-9.1,1.8-11.4,5"/>
		<path class="st0" d="M606.8,517.7c-0.4-0.8-0.6-1.5-0.6-2.4"/>
		<path class="st0" d="M595.4,518c-0.3-0.5-0.4-1.2-0.3-1.8"/>
		<path class="st0" d="M600.2,517.4c-0.2-0.8-0.4-2-0.3-2.4"/>
		<path class="st0" d="M601.7,525.2c-0.5-0.7-0.8-1.6-0.9-2.4"/>
		<path class="st0" d="M597.5,520.1c0.2,0.2,0.4,0.4,0.6,0.6"/>
		<path class="st0" d="M599.3,527.9c-0.3-0.3-0.4-0.8-0.3-1.2"/>
		<path class="st0" d="M602.9,519.5c0-0.4-0.1-0.8-0.3-1.2"/>
		<path class="st0" d="M605.6,525.2c0-0.6,0-1.2,0-1.8"/>
		<path class="st0" d="M592.1,521.6c-0.3-0.2-0.4-0.5-0.3-0.9"/>
		<path class="st0" d="M597.5,524.9c-0.2-0.3-0.4-0.6-0.6-0.9"/>
		<path class="st0" d="M597.2,514.7c-0.1-0.5-0.1-1,0.3-1.2"/>
		<path class="st0" d="M602.9,513.5c0-0.3,0-0.6,0-0.9"/>
		<path class="st0" d="M610.4,517.1c0.1,0.6,0,1.2-0.3,1.8"/>
		<path class="st0" d="M608,524.3c0.1-0.2,0.2-0.4,0.3-0.6"/>
		<path class="st0" d="M602.9,529.7c0.3-0.3,0.6-0.5,0.9-0.3"/>
		<path class="st0" d="M608.6,512.9c-0.1-0.5-0.4-1-0.9-1.2"/>
		<path class="st0" d="M603.2,517.1c-0.1-0.2-0.2-0.4-0.3-0.6"/>
		<path class="st0" d="M590.3,515c0.1-0.1,0.2-0.2,0.3-0.3"/>
		<path class="st0" d="M594.5,521c-0.3-0.2-0.7-0.5-0.9-0.9"/>
		<path class="st0" d="M594.8,526.1c-0.4-0.3-0.8-0.6-1.2-0.9"/>
	</g>
	<g>
		<path class="st0" d="M638.1,250.4c0.1-1,0.5-2.3,1.2-3.3c0.7-1,2-1.7,2.5-2.6c0.9-1.5-0.9-5.1-2.4-6.1c-0.9-0.6-3.1-0.5-3.7-1.3
			c-1.1-1.6,1.7-1.9,2.6-2.1c1.4-0.3,2.4-1.1,3.4-0.2c0.9,0.7,1.7,2.4,2,3.4c0.2,1,0.1,2,0.3,2.9c0.2,1.5,0.2,1.5,1.4,1.3
			c2.1-0.4,3.5-0.6,5.5,0.6"/>
		<path class="st0" d="M632.5,253.6c-0.7-1,1.4-2.9,2.3-3.4c1.4-0.7,2.8-0.5,4.2,0c2.8,0.9,3.6,2.6,5.6,4.5c0.1-1.9-0.4-4.1,1-5.7
			c1.4-1.7,3.9-1.8,5.7-0.9c-0.5-3.2-0.7-6.4,3-7.7"/>
		<path class="st0" d="M641.1,241.8c-2.3-2.5-4.5,2.9-5.1,4c-0.1-3.5-5.5-0.9-6.7,0.5c-2.1,2.6-3.2,6.8-2.4,10.1
			c1.3,4.8,5.8,9.3,9.5,12.3c3,2.5,8.4,10.5,13.1,7.4c1.2-0.8,0.9-2,2.6-1.8c1.1,0.1,2,1.1,3.2,0.3c1.2-0.9,0.4-1.9,2-2.4
			c1.2-0.3,2.2,0.2,3.1-1c0.4-0.5,0.5-1.2,0.4-1.9c1.6,0.1,2,0.3,2.1-1.6c0.1-1.3,0-2.6,0.2-3.9c0.4-3.2,1.1-6.4,1.2-9.6
			c0.3-6.4-0.1-13.2-5.8-17.3c-3-2.1-8.6-2.5-9.8,1.8c-1.3-1.7-3.6-0.5-4.9,0.5"/>
	</g>
	<g>
		<path class="st0" d="M669.4,339.6c-1.5-2.9-5.9-1-7.7,0.6c-1.1,1-1.6,2.4-3,3.4c-1.3,0.9-2.9,1.2-4.2,2.5c-1,1.1-1.3,2.6-2.2,3.7
			c-1,1.3-2.6,1.9-3.9,2.8c-1.6,1.2-1.5,2.4-2.5,3.9c-0.9,1.4-2.5,2-3.8,3c-2.4,1.9-4,4.5-6.4,6.5c-2.3,2-3.4,4.7-5.7,6.7
			c-2.2,2-3.5,4.3-5.8,6.3c-1.9,1.7-5.4,3.8-6.3,6.2c1.5-0.2,2.9-1,4.3-1.6c1.3-0.6,2.8-0.8,4-1.4c1.4-0.7,2.5-2.1,3.9-2.8
			c1.5-0.7,3.2-0.7,4.6-1.6c1.6-0.9,2.3-2,4.1-2.6c1.6-0.6,2.8-1.7,4.3-2.6c2.8-1.7,5.9-2.6,8.7-4.5c2.6-1.8,5.5-2.8,8.1-5
			c2.6-2.2,5.5-3.7,7.9-6.2c2.1-2.2,5.6-4,6.9-6.9c1.4-3.1-1.5-5.4-3.4-7.6c-0.8-0.9-1.5-1.9-2.2-2.8"/>
		<path class="st0" d="M669.2,339.6c2.4-1.9,4-3.9,6-6.2c1.5-1.8,2.3-4.6,4-6.1c0.2,0.7,0.8,1.3,1.3,2c-3.8,2.6-5.5,7.5-9.3,10.4
			c4.3-1.8,8.1-6.9,10.8-10.2c0.5,0.7,1.1,1.4,1.7,1.9c-4.1,3.5-8.2,6.9-11.9,10.8c2.5-1.6,4.5-3.7,6.8-5.5c1.9-1.5,5-3.6,6.3-5.6
			c0.6,0.7,0.9,1.4,1.4,2.1c-1.4,1.5-3.6,2.7-5.3,3.9c-1.5,1-3.5,3.1-4.7,3.8c1.8-1.4,3.6-2.7,5.4-3.9c2.1-1.5,2.7-3,4.4-0.4
			c-1.3,1.5-3.7,2.3-5.4,3.5c-1.5,1.1-3.3,2.3-4.8,3.5c1.8-1.3,4.2-1.2,6.1-2.4c0.5,0.7,0.8,1.6,1.3,2.3c-2.8,0.9-5.7,1.7-8.3,3"/>
		<path class="st0" d="M671.5,354c-0.9,0.5-2.2,0.6-2.8-0.3"/>
		<path class="st0" d="M664.2,360.3c-2.7,0.8-9.3,1.1-8.7-3.7"/>
		<path class="st0" d="M654.2,363.5c0.3,1.2,1.4,2.1,2.6,1.8"/>
		<path class="st0" d="M650.9,366.5c0.5,0.8,1.4,1.2,2.2,0.6"/>
		<path class="st0" d="M646.6,369.4c0.4,1,1.3,1.2,2.1,0.4"/>
		<path class="st0" d="M642.1,370.9c0.3,0.3,1,0.8,1.4,1.2"/>
		<path class="st0" d="M637.4,374c0.2,0.4,0.7,0.9,1,1.2c0.2-0.1,0.4-0.3,0.6-0.5"/>
		<path class="st0" d="M633.3,376.9c0.4,0.5,0.9,0.8,1.5,0.9"/>
		<path class="st0" d="M623.6,380.2c0.1,0.2,0,0.4-0.1,0.6"/>
		<path class="st0" d="M626.5,376.7c-0.1,0.3-0.2,0.7-0.1,1.1"/>
		<path class="st0" d="M660.3,342.9c0.1,1.1,0.6,2.4,2,2.3"/>
		<path class="st0" d="M656.6,345.3c0.1,0.5,0.4,1,0.8,1.4"/>
		<path class="st0" d="M653.5,348.2c-0.6,1.3,1.1,4,2.3,4.9"/>
		<path class="st0" d="M651.3,351.7c0.2,0.3,0.5,0.6,0.7,1"/>
		<path class="st0" d="M646.6,355.4c0.3,1.5,1.2,2.5,2.1,3.7"/>
		<path class="st0" d="M642.4,360.2c0.3,0.4,0.6,0.7,0.9,1.1"/>
		<path class="st0" d="M639.1,362.8c-0.6,1.2,1.2,4.4,2.6,4.6"/>
		<path class="st0" d="M632.8,370.7c0.2,0.4,0.6,0.8,1,1"/>
		<path class="st0" d="M629.4,374.1c-0.3,0.9,0.2,1.7,0.7,2.5"/>
		<path class="st0" d="M627,381.6c-0.1-0.4-0.5-1.2-0.8-1.7"/>
		<path class="st0" d="M674.3,348.5c-1.4,1.1-4.4,1.1-5.4-0.7"/>
		<path class="st0" d="M666.9,340.3c0,2,4.4,6.7,5.9,5.6"/>
		<path class="st0" d="M664.5,342.4c0.7,1.1,2.4,2.7,3.7,2.2"/>
	</g>
	<g>
		<path class="st0" d="M560.6,257.5c-1.9,0.2-2.5,3.5-2.4,5.1c0.2,2.3,1.6,4.5,3.4,6c3.1,2.5,8.1,3.2,11.8,4.2c3.8,1,5,5.1,9.1,5.7
			c-4.4-2.5-4.4-9.1-5-13.5c-0.5-4.4-1.3-8.8-5.4-11.1c-1.9-1.1-4.5-0.7-6.4,0c-2.3,0.9-3.7,2.8-5.9,3.9"/>
		<path class="st0" d="M569.1,254.1c-0.4,1.8-2,2.8-3.5,3.7"/>
		<path class="st0" d="M559.5,262.9c0.9,0.9,3.7,0.2,4.3-0.9"/>
		<path class="st0" d="M561.7,266.2c1.2,0,2.5-0.7,3.4-1.5"/>
		<path class="st0" d="M570.6,258.8c0.9,1.4-0.7,3.2-1.9,3.8"/>
		<path class="st0" d="M574.4,258.9c1.6,1.8-1.8,4.8-3.3,5.5"/>
		<path class="st0" d="M568.7,269.8c1.4,0.8,3.1-1.1,3.6-2.3"/>
		<path class="st0" d="M576.7,264c-0.2,1.2-1.3,2.6-2.1,3.4"/>
		<path class="st0" d="M573.5,271.8c0.9-0.1,1.9-0.8,2.2-1.6"/>
		<path class="st0" d="M576.1,273.1c0.3,0.5,1,0.2,1.3-0.3"/>
		<path class="st0" d="M561,256.8c-1.2-0.2-3-2.5-4.1-3.2c-2-1.2-4.1-1.7-6.2-2.6c1.2-0.8,1.2-1.4,2.5-0.7c1,0.6,1.9,1.3,2.8,1.9
			c1.8,1.2,3.5,2.4,5.1,3.7"/>
		<path class="st0" d="M563.4,255.7c-1-0.7-1.6-3.5-2.3-4.6c-1.3-1.9-3-3.3-4.5-5c1.5-0.2,1.8-0.7,2.6,0.6c0.6,0.9,1.1,2,1.7,2.9
			c1.1,1.8,2.1,3.7,3,5.6"/>
		<path class="st0" d="M562.9,255.8c-3-2.3-4.9-6.5-6.7-9.7c-0.7,0.2-1.3,1.1-2,1.4c0.5,1.2,1.7,2,2.5,3c0.7,0.9,1.3,1.8,2.1,2.6
			c0.9,0.9,1.9,1.8,2.9,2.6"/>
		<path class="st0" d="M565,253.9c-0.8-1.2-1.6-2.3-1.9-3.8c-0.4-1.8-0.6-3.8-0.8-5.6c-0.1-0.9,0-2.5-0.9-2.8
			c-1.4-0.5-1.8,0.4-1.8,1.3c0,0.8,0.2,1.8,0.4,2.6c0.8,3.1,3.1,5.7,4.2,8.7"/>
	</g>
	<g>
		<path class="st0" d="M697.9,467.5c-1.9,0.2-2.5,3.5-2.4,5.1c0.2,2.3,1.6,4.5,3.4,6c3.1,2.5,8.1,3.2,11.8,4.2c3.8,1,5,5.1,9.1,5.7
			c-4.4-2.5-4.4-9.1-5-13.5c-0.6-4.4-1.3-8.8-5.4-11.1c-1.9-1.1-4.5-0.7-6.4,0c-2.3,0.9-3.7,2.8-5.9,3.9"/>
		<path class="st0" d="M706.4,464.1c-0.4,1.8-2,2.8-3.5,3.7"/>
		<path class="st0" d="M696.8,472.9c0.9,0.9,3.7,0.2,4.3-0.9"/>
		<path class="st0" d="M699,476.2c1.2,0,2.5-0.7,3.4-1.5"/>
		<path class="st0" d="M708,468.8c0.9,1.4-0.7,3.2-1.9,3.8"/>
		<path class="st0" d="M711.7,468.9c1.6,1.8-1.8,4.8-3.3,5.5"/>
		<path class="st0" d="M706,479.8c1.4,0.8,3.1-1.1,3.6-2.3"/>
		<path class="st0" d="M714.1,474c-0.2,1.2-1.3,2.6-2.1,3.4"/>
		<path class="st0" d="M710.8,481.8c0.9-0.1,1.9-0.8,2.2-1.6"/>
		<path class="st0" d="M713.4,483.1c0.3,0.5,1,0.2,1.3-0.3"/>
		<path class="st0" d="M698.3,466.8c-1.2-0.2-3-2.5-4.1-3.2c-2-1.2-4.1-1.7-6.2-2.6c1.2-0.8,1.2-1.4,2.5-0.7c1,0.6,1.9,1.3,2.8,1.9
			c1.8,1.2,3.5,2.4,5.1,3.7"/>
		<path class="st0" d="M700.7,465.7c-1-0.7-1.6-3.5-2.3-4.6c-1.3-1.9-3-3.3-4.5-5c1.5-0.2,1.8-0.7,2.6,0.6c0.6,0.9,1.1,2,1.7,2.9
			c1.1,1.8,2.1,3.7,3,5.6"/>
		<path class="st0" d="M700.2,465.8c-3-2.3-4.9-6.5-6.7-9.7c-0.7,0.2-1.3,1.1-2,1.4c0.5,1.2,1.7,2,2.5,3c0.7,0.9,1.3,1.8,2.1,2.6
			c0.9,0.9,1.9,1.8,2.9,2.6"/>
		<path class="st0" d="M702.4,463.9c-0.8-1.2-1.6-2.3-1.9-3.8c-0.4-1.8-0.6-3.8-0.8-5.6c-0.1-0.9,0-2.5-0.9-2.8
			c-1.4-0.5-1.8,0.4-1.8,1.3c0,0.8,0.2,1.8,0.4,2.6c0.8,3.1,3.1,5.7,4.2,8.7"/>
	</g>
	<g>
		<path class="st0" d="M501.8,421.1c-2.2-1-3.6-2.9-5.9-3.9c-1.9-0.8-4.5-1.1-6.4,0c-4.1,2.4-4.8,6.7-5.4,11.1
			c-0.6,4.4-0.5,11-5,13.5c4.1-0.6,5.3-4.6,9.1-5.7c3.8-1,8.7-1.7,11.8-4.2c1.8-1.5,3.2-3.6,3.4-6c0.1-1.6-0.5-4.9-2.4-5.1"/>
		<path class="st0" d="M496.3,421.2c-1.5-0.8-3.1-1.9-3.5-3.7"/>
		<path class="st0" d="M498,425.5c0.7,1.1,3.4,1.8,4.3,0.9"/>
		<path class="st0" d="M496.7,428.2c0.9,0.7,2.2,1.4,3.4,1.5"/>
		<path class="st0" d="M493.1,426.1c-1.2-0.6-2.8-2.4-1.9-3.8"/>
		<path class="st0" d="M490.8,427.9c-1.5-0.7-5-3.7-3.3-5.5"/>
		<path class="st0" d="M489.5,431c0.5,1.2,2.2,3.1,3.6,2.3"/>
		<path class="st0" d="M487.2,430.9c-0.8-0.8-1.9-2.2-2.1-3.4"/>
		<path class="st0" d="M486.2,433.6c0.3,0.9,1.3,1.6,2.2,1.6"/>
		<path class="st0" d="M484.4,436.3c0.2,0.5,0.9,0.9,1.3,0.3"/>
		<path class="st0" d="M500.7,419.5c1.6-1.4,3.4-2.6,5.1-3.7c0.9-0.6,1.8-1.3,2.8-1.9c1.3-0.7,1.3-0.1,2.5,0.7
			c-2,0.9-4.2,1.4-6.2,2.6c-1.2,0.7-2.9,3-4.1,3.2"/>
		<path class="st0" d="M497.9,418.6c0.8-1.9,1.9-3.7,3-5.6c0.6-1,1.1-2,1.7-2.9c0.8-1.2,1.2-0.7,2.6-0.6c-1.4,1.7-3.2,3.1-4.5,5
			c-0.7,1.1-1.3,3.9-2.3,4.6"/>
		<path class="st0" d="M500.1,419.2c1-0.8,2-1.7,2.9-2.6c0.9-0.8,1.4-1.7,2.1-2.6c0.8-1,2-1.8,2.5-3c-0.7-0.4-1.2-1.2-2-1.4
			c-1.8,3.2-3.7,7.5-6.7,9.7"/>
		<path class="st0" d="M497.7,417.7c1.1-3,3.4-5.6,4.2-8.7c0.2-0.8,0.4-1.8,0.4-2.6c0-0.9-0.4-1.8-1.8-1.3c-0.9,0.3-0.8,1.9-0.9,2.8
			c-0.2,1.9-0.4,3.8-0.8,5.6c-0.3,1.5-1.1,2.6-1.9,3.8"/>
	</g>
	<g>
		<path class="st0" d="M634,446.2c-0.8-2.7-0.2-7.7-2.3-9.8c-1.3,0.4-3.1,0.5-3.7,1.9c1.9,1.4,3.3,2.3,3.9,4.9
			c0.5,1.8,1.1,4.5-1.1,5.5c-1.9,0.9-5.2,0.1-5.2-2.2c0-3.8,3.7-0.8,1.5,0c2.8,1.1,3.5-2.3,0.9-3.3c-2.1-0.8-4.7,0.8-4.9,3.1
			c-0.3,2.3,1.5,4.7,3.6,5.2c1.8,0.5,5.2,0.7,5.7-1.6c2,1.4,0.3,4.6-0.4,6.2c-0.8,0.1-1.7,0-1.6-0.9c0.3,0.1,0.7-0.1,0.9,0
			c0.7-2.6-2.8-1.6-3.2,0.2c-0.5,2.1,1.6,3.3,3.4,3.1c3.4-0.3,6.5-4.1,4.4-7.4c4.4,1.9,9.5-3.8,7.2-7.9c-1-1.8-3.1-3.8-5.1-2.1
			c-3,2.6,1.9,4.6,1.7,2.4c-1.4-0.2,0.3-2.2,1.3-0.5c0.5,0.9-0.2,2.7-0.7,3.3c-0.8,1.1-2,1.7-3.3,1.6
			C635.8,447.9,635.2,446.8,634,446.2"/>
		<path class="st0" d="M624.5,450.1c-8.8-2.8-18.3,13.7-4.6,23.5c5,3.5,11.5,5,17.3,2.7c1.5-0.6,2.2-1.3,3.6-1.3
			c1.3,0,2.5,0.4,3.9,0.3c3.1-0.1,6.3-1.8,9-3.5c5.4-3.5,6.9-11.1,5.4-16.9c-2.8-10.1-14.9-10.4-15.7-7.4"/>
	</g>
	<g>
		<path class="st0" d="M494.8,477.7c-2,0.6-3.7,0.7-4.2,3.2c-0.4,2.2,0.9,4.5,2.1,6.2c3.1,4,7.4,7.1,11.1,10.5
			c5.1,4.6,13.2,8.7,20.2,8.7c3.7,0,18.3,0,18.2-5.5c-1.8-0.1-3.5,0.3-5.4,0.4c-8.6,0.4-18.5-1.8-24.9-7.9
			c-3.4-3.2-5.4-7.8-8.7-11.1c-2-2-6.3-5.4-9.1-3.9"/>
		<path class="st0" d="M492.2,478.7c-1.5-0.9-3.1-6.3-0.2-5.5c-0.3,1.5-0.1,3.9,1,5.1"/>
		<path class="st0" d="M502.5,490.8c-2.7-1-7.6-3.6-7.9-6.9"/>
		<path class="st0" d="M519.7,503.6c6.1,1.3,11.5,1.4,17.2-0.6"/>
		<path class="st0" d="M503.3,484.6c-1.2-1.4-2.9-4-4.9-4.2"/>
		<path class="st0" d="M512.4,499.3c-3.1-0.8-5.2-3.2-7.7-4.9"/>
	</g>
	<g>
		<path class="st0" d="M546.3,352.5c0-1.7-0.1-3.4,0.5-4.8c0.6-1.4,2.1-3.1-0.2-3.7c-2.4-0.6-3.1,0.9-3.1,2.9c0,1.8-0.1,3.2-1.2,4.7
			c-1.5,2-2.6,3.6-2.7,6.2c-0.1,3,1.6,18.1,13.5,27.5c5.4,4.6,14.7,7.6,21.8,6.7c7.3-0.9,15.6-3.5,20.4-9.6c2-2.6,3.3-5.9,3.5-9.2
			c0.1-2.6-0.8-6.3-3.9-6.5c-1.6-0.1-2.8,0.7-4.1,1.6c-1.8,1.1-3.7,2-5.6,2.8c-3.7,1.6-7,2.2-11.1,2.2c-14,0.5-21.1-11.5-23.2-14.2
			c-1.4-1.8-2.2-6.4-4.8-6.7"/>
		<path class="st0" d="M597.5,372.3c-1.1,7.7-6.5,11.5-13.7,13.4c-10.1,2.8-22.1,1.7-30.2-5.5c-6.8-6.1-10.6-13.8-10.6-23.2"/>
		<path class="st0" d="M545.7,353.3c-1.1,0.5,0.3,3.9,0.6,4.8c2.9,8.6,10.2,16.1,19.1,18.3c4.7,1.2,10.1,1.2,14.8,0.3
			c4.7-0.9,11.2-3.3,13.4-8.1"/>
		<path class="st0" d="M596.6,368.8c-0.8-0.3-1.5-0.9-2.3-0.4c-0.1,0.9,1,2.2,1.8,2.5c1.1,0.4,2.1-0.3,0.9-1.2"/>
		<path class="st0" d="M544.8,344.9c-0.1,1.3,1.6,1.1,2.3,0.6c0-0.5-0.3-0.7-0.8-0.7"/>
	</g>
	<g>
		<path class="st0" d="M515.8,298.6c-1.9-1.2-5.9,3.9-6.8,5.1c-2.1,2.9-4,6.9-4.9,10.4c-0.5,1.7-0.7,3.4-1.3,5.1
			c-0.7,1.9-1.6,3.7-2.1,5.7c-1.1,4.6-0.9,10.7,2.6,14.1c3.8,3.7,10.3,6.1,15.6,5.1c3.7-0.7,6.3-4,7.9-7.3c0.8-1.6,1.2-3.4,2-5
			c0.8-1.6,1.8-3.1,2.5-4.7c1.6-3.7,1.5-7.3,1.7-11.2c0.1-2,0.6-4.3,0-6.3c-0.7-2.4-2.4-3.9-4.2-5.5c-3.9-3.5-8.9-6.4-14.4-5.6"/>
		<path class="st0" d="M523.8,312.7c1,0.9,5.5,3.3,6.6,1.6"/>
		<path class="st0" d="M514.6,312.5c1.1,0.6,2,1.3,3.2,1.7"/>
		<path class="st0" d="M518.9,317.8c1.5,0.8,3.8,2.1,5.6,1.6"/>
		<path class="st0" d="M523.2,323.5c0.9,0.8,2.4,1.5,3.6,1.4"/>
		<path class="st0" d="M510.9,321.3c1,0.7,2.4,2.1,3.7,2.1"/>
		<path class="st0" d="M518.1,330.7c-0.6,0-1.2-0.3-1.4-0.7"/>
		<path class="st0" d="M524.9,334.5c-1.3,0-4.1,0.1-4.8-1.2"/>
		<path class="st0" d="M517.4,337.1c1.1,0.4,2.4,1.2,3.5,0.4"/>
		<path class="st0" d="M506.3,334.3c0.9,0.3,1.8,0.8,2.7,0.9"/>
		<path class="st0" d="M504.8,325.8c0.8,0.3,1.5,0.6,2.3,0.9"/>
		<path class="st0" d="M506.4,322.4c-0.7-0.5-1.4-1.1-2.1-1.7"/>
		<path class="st0" d="M506.9,329.5c0.9,0.5,2,0.6,2.9,0.1"/>
		<path class="st0" d="M502.8,333.6c0.5,0.5,1.2,0.8,1.9,1.1"/>
		<path class="st0" d="M508,337.8c0.8,0.4,1.7,0.5,2.6,0.1"/>
		<path class="st0" d="M512.9,340.3c0.6,0.3,1.3,0.5,1.9,0.3"/>
		<path class="st0" d="M512.2,331c1,0.4,2,0.9,3.1,0.7"/>
		<path class="st0" d="M523.9,329.6c0.8,0.6,2.2,2,3.1,1.1"/>
		<path class="st0" d="M514.1,317.8c0.8,0.6,1.7,1,2.6,1.3"/>
		<path class="st0" d="M513.9,304.8c0.6,0.2,1.4,0.3,1.4,0.8"/>
		<path class="st0" d="M520.9,302.2c0.6,0.2,1.2,0.5,1.8,0.7"/>
		<path class="st0" d="M525.4,307.8c0.5,0.3,1,0.4,1.6,0.3"/>
		<path class="st0" d="M512.6,301.2c0.8,0.3,1.7,0.8,2.6,0.9"/>
		<path class="st0" d="M517.4,307.7c0.9,0.3,1.8,0.8,2.7,0.9"/>
		<path class="st0" d="M510.1,307.3c0,0,0-0.1,0.1-0.1"/>
		<path class="st0" d="M529.3,321.3c-1.5-0.6-2.7-1.5-4-2.5"/>
		<path class="st0" d="M526.7,325.5c0.3,0.2,0.6,0.2,0.9,0.2"/>
		<path class="st0" d="M509.3,315.4c0.9,0.3,1.7,0.7,2.6,1"/>
		<path class="st0" d="M515.4,323.6c0.6,0.4,1.4,0.8,2,0.8"/>
		<path class="st0" d="M505.3,316.5c0.3,0.2,0.7,0.4,1,0.6"/>
	</g>
	<g>
		<path class="st0" d="M571.7,464.7c-0.3-2.8-1.6-6.1-3-8.5c-2.5-4.6-5.5-8.1-10.2-10c-13.4-5.6-15.4-13.3-15.3-16.3
			c0-1.4,1-3.7,1.4-5.1c0.4-1.2,1.4-2.1,1.7-3.4c-3.8,3.7-10.1,13.3,7.3,24.9c6.1,4.1,16.6,13.9,9.3,21.7
			C566.8,467.9,572.3,470.4,571.7,464.7z"/>
		<path class="st0" d="M560.6,449.9c2.5,3.8,10.4,9.7,8.3,15.3"/>
		<path class="st0" d="M565.4,452.3c-1.9-2.8-5.3-4.6-8.3-5.8c-2-0.8-3.8-2-5.7-2.7"/>
		<path class="st0" d="M564.6,464.8c-0.9,2.2-4.7,2-4.5-0.8c0.1,1.5-2.1,1.8-3.1,1.1c-1.2-0.8-1.3-2.9-1.9-4.1
			c-0.3,3.4-5.5-0.7-6.4-1.8c-0.2,2.6-7.2-0.9-6.8-4.3c-3.3,3-9.4-4-4.6-6c-1.5-0.3-4.2-0.4-4.8-2.3c-0.4-1.3,0.8-2.9,1.2-4
			c-4.8-0.5-2.7-6.1,0-8.1c-1.8-1.2-2.9-1.8-2.5-4.1c0.4-2.2,1.2-3.5,3.4-3.9c-1.3-1.6-0.2-4.3,1-5.7c1.4-1.6,3.3-1.9,5.3-1.8
			c-1.5-1.4-1.1-2.8,0.6-3.7c1.9-1,3.3-0.5,5.2-0.2c-0.1-2,2.2-2.2,3.7-1.7c1.6,0.6,1.6,2.4,2.9,2.9c1.1,0.4,2.7-0.9,4.1-0.7
			c1.8,0.3,1.9,1.4,2.4,2.9c0.7-1.4,3.3-1,4.4-0.2c1.5,1.1,0.6,2.7,0.7,4.4c3.6-1,4.5,3.8,2.1,5.3c1.3-0.3,2.8-0.2,3.7,1
			c0.9,1.3,0.1,2.7,0.2,4.3c1.6-1.2,4.8,0.2,5.8,1.6c1.3,2,0.4,3,0.1,5c1.6-0.5,3.9,0.7,4.7,2.1c1.6,2.6-1.3,3.4-1.8,5.4
			c1.6,0.2,2.5,2.3,2.2,3.8c-0.3,2-2.1,2.2-3.8,2.1c4.6,1.1,0.7,6.7-3.1,6c2.1,0.9-1.5,4.5-3.9,2.5"/>
		<path class="st0" d="M548.6,456.2c2.6-0.1,5.1-0.7,7.8-0.7"/>
		<path class="st0" d="M543,449.7c1.4-0.2,3.8-0.7,5,0.2"/>
		<path class="st0" d="M535.9,442.3c2.7,0.6,5.9-0.3,8.5,1"/>
		<path class="st0" d="M535.8,434.5c0.7,0.5,1.5,0.8,2.1,1.2"/>
		<path class="st0" d="M535.8,429.4c0.6,1,1.7,1.5,2.4,2.4"/>
		<path class="st0" d="M549.8,426.5c0.1-2.4,4.3-5.1,6.6-4.9"/>
		<path class="st0" d="M555.4,428.9c0.4-1.2,1.2-2.5,2.3-3.1"/>
		<path class="st0" d="M552.4,439.7c0-1.9-0.1-4.2,1-5.9"/>
		<path class="st0" d="M559.7,440.2c0-3.4,0-9.7,3.8-11.3"/>
		<path class="st0" d="M564.7,441.8c0.2-1.7,1-3.7,2.3-4.9"/>
		<path class="st0" d="M567.7,448c0.2-2.4,2.1-8.2,3.6-9.4"/>
		<path class="st0" d="M573.6,449.6c-0.1-1.5,0.3-3.6,1.7-4.3"/>
		<path class="st0" d="M571.3,456.9c1.1-1,2.6-1.8,3.5-2.9"/>
	</g>
</g>
</svg>
